<svg width="192" height="13" fill="none" xmlns="http://www.w3.org/2000/svg"><g clip-path="url(#clip0)"><path d="M65.522.214h3.284v12.571h-3.284V.214zM88.109 6.637c-.773-.588-1.855-1.027-3.255-1.32-1.4-.293-2.288-.546-2.675-.763a1.094 1.094 0 01-.427-.37.885.885 0 01-.151-.502.95.95 0 01.119-.49 1.13 1.13 0 01.364-.392 2.214 2.214 0 011.292-.334c1.365 0 2.68.411 3.96 1.241l1.666-2.051A8.386 8.386 0 0086.417.433a10.526 10.526 0 00-2.946-.427c-1.504 0-2.758.323-3.762.97-1.005.646-1.505 1.565-1.5 2.758 0 1.196.4 2.069 1.19 2.625.79.557 2.047 1.011 3.762 1.355 1.08.228 1.805.455 2.166.677.168.1.305.234.4.389a.985.985 0 01.15.502.978.978 0 01-.133.505 1.17 1.17 0 01-.387.399c-.343.22-.815.334-1.418.334-1.347 0-2.814-.593-4.402-1.78l-1.953 2.048C79.448 12.263 81.547 13 83.88 13c1.612 0 2.914-.35 3.906-1.052a3.534 3.534 0 001.12-1.223c.258-.475.383-.996.365-1.52-.005-1.125-.393-1.98-1.163-2.568zM27.047 10.305v-2.61h5.916v-2.39h-5.916v-2.59h7.33V.214H23.763v12.572h10.849v-2.48h-7.565zm-11.145 2.481L9.538.214H6.357L0 12.786h3.495l4.468-8.833L9.798 8.09H7.715L6.508 10.48h4.734l1.158 2.306h3.502zM53.803 8.287c1.867-.588 2.8-1.889 2.802-3.904 0-1.465-.487-2.526-1.46-3.182C54.17.547 52.53.212 50.24.212h-5.578v6.136h-.948l-1.117 2.444h2.072v3.996h3.283V8.792h2.297l3.248 3.996h4.045l-3.74-4.501zm-1.158-2.413c-.405.314-1.167.47-2.295.47h-2.402V2.618h2.468c1.05 0 1.787.124 2.209.378.422.253.635.711.635 1.392 0 .68-.21 1.176-.615 1.485z" fill="#fff"/><path d="M112.878 12.786L106.515.214h-3.182l-6.356 12.572h3.495l4.466-8.833 1.837 4.136h-2.083l-1.209 2.391h4.734l1.16 2.306h3.501zM139.029.224h3.188v10.134h6.738v2.42h-9.926V.224zm51.806 6.413c-.773-.588-1.853-1.027-3.255-1.32-1.401-.293-2.286-.546-2.666-.763a1.091 1.091 0 01-.428-.37.88.88 0 01-.152-.502.95.95 0 01.117-.489c.083-.153.206-.287.359-.393a2.22 2.22 0 011.292-.334c1.365 0 2.682.411 3.962 1.241l1.666-2.051a8.376 8.376 0 00-2.571-1.223 10.51 10.51 0 00-2.945-.427c-1.5 0-2.76.324-3.762.97-1.002.644-1.5 1.565-1.5 2.758s.398 2.069 1.188 2.625c.79.557 2.047 1.011 3.762 1.355 1.081.228 1.803.454 2.167.677.167.1.304.234.399.39a.979.979 0 01.017 1.007c-.09.156-.223.293-.386.398-.345.22-.815.334-1.42.334-1.345 0-2.811-.593-4.4-1.78l-1.957 2.054c1.866 1.474 3.964 2.212 6.297 2.212 1.611 0 2.913-.35 3.906-1.052a3.534 3.534 0 001.12-1.223c.258-.476.383-.996.365-1.52-.016-1.13-.401-1.986-1.175-2.574zM172.585 12.786L166.222.214h-3.182l-6.358 12.572h3.496l4.467-8.833 1.835 4.136h-2.082l-1.208 2.391h4.733l1.16 2.306h3.502zM119.65.214v2.418h4.232v10.154h3.188V2.632h4.232V.214H119.65z" fill="#2084AD"/></g><defs><clipPath id="clip0"><path d="M0 0h192v13H0V0z" fill="#fff"/></clipPath></defs></svg>