<svg xmlns="http://www.w3.org/2000/svg" viewBox="0 0 1152 91.32"><defs><style>.cls-1{fill:#ffffff}.cls-2{fill:#226c8b}</style></defs><path class="cls-1" d="M393.13 1.5h19.71v88.31h-19.71z"/><path class="cls-1" d="M533.15 50.46c-4.64-4.13-11.13-7.21-19.53-9.27s-13.73-3.84-16.05-5.36a7 7 0 0 1-3.47-6.13 7.6 7.6 0 0 1 2.9-6.19 11.83 11.83 0 0 1 7.75-2.35c8.19 0 16.08 2.89 23.76 8.72l10-14.41A47.5 47.5 0 0 0 523 6.88a54.66 54.66 0 0 0-17.68-3q-13.53 0-22.57 6.81t-9 19.38c0 8.4 2.4 14.53 7.14 18.44s12.28 7.1 22.57 9.52c6.48 1.6 10.83 3.19 13 4.75a7.8 7.8 0 0 1 .18 12.61c-2.06 1.55-4.89 2.35-8.51 2.35q-12.12 0-26.41-12.5L470 79.62q16.78 15.54 37.78 15.54 14.51 0 23.44-7.39a23.84 23.84 0 0 0 8.91-19.27q-.05-11.85-6.98-18.04z" transform="translate(-4.5 -3.84)"/><path class="cls-1" d="M162.28 72.39V54.06h35.5v-16.8h-35.5V19.07h43.98V1.5h-63.68v88.32h65.09V72.39h-45.39zM95.41 89.82L57.23 1.5H38.14L0 89.82h20.97l26.81-62.05 11.01 29.05h-12.5l-7.24 16.8h28.4l6.95 16.2h21.01z"/><path class="cls-1" d="M327.32 62.05q16.8-6.19 16.81-27.42 0-15.44-8.76-22.35c-5.84-4.6-15.69-6.95-29.42-6.95h-33.47v43.1h-5.69l-6.7 17.17h12.43v28.07h19.7V65.6H306l19.49 28.07h24.27zm-6.95-16.95c-2.43 2.21-7 3.3-13.77 3.3h-14.41V22.24H307c6.3 0 10.72.87 13.25 2.65s3.81 5 3.81 9.78-1.26 8.26-3.69 10.43z" transform="translate(-4.5 -3.84)"/><path class="cls-2" d="M677.27 89.82L639.09 1.5H620l-38.14 88.32h20.97l26.8-62.05 11.02 29.05h-12.5l-7.25 16.8h28.4l6.96 16.2h21.01z"/><path class="cls-2" d="M838.67 5.41h19.13V76.6h40.43v17h-59.56zM1149.51 50.46c-4.64-4.13-11.12-7.21-19.53-9.27s-13.72-3.84-16-5.36a7 7 0 0 1-3.48-6.13 7.66 7.66 0 0 1 2.86-6.19 11.85 11.85 0 0 1 7.75-2.35c8.19 0 16.09 2.89 23.77 8.72l10-14.41a47.5 47.5 0 0 0-15.43-8.59 54.55 54.55 0 0 0-17.67-3c-9 0-16.56 2.28-22.57 6.81s-9 11-9 19.38 2.39 14.53 7.13 18.44 12.28 7.1 22.57 9.52q9.73 2.4 13 4.75a7.81 7.81 0 0 1 .18 12.61c-2.07 1.55-4.89 2.35-8.52 2.35q-12.1 0-26.4-12.5l-11.74 14.42q16.79 15.54 37.78 15.54 14.5 0 23.44-7.39a23.84 23.84 0 0 0 8.91-19.27c-.1-7.94-2.41-13.95-7.05-18.08z" transform="translate(-4.5 -3.84)"/><path class="cls-2" d="M1035.51 89.82L997.33 1.5h-19.09l-38.15 88.32h20.98l26.8-62.05 11.01 29.05h-12.49l-7.25 16.8h28.4l6.96 16.2h21.01zM717.9 1.5v16.99h25.39v71.33h19.13V18.49h25.39V1.5H717.9z"/></svg>