<svg width="102" height="52" fill="none" xmlns="http://www.w3.org/2000/svg"><g clip-path="url(#clip0)"><path d="M6.154 6.464V52.31H.923V6.465h5.23z" fill="#004F70" stroke="#004F70" stroke-width=".308"/><path opacity=".9" fill-rule="evenodd" clip-rule="evenodd" d="M11.846 27.848v24.615H6.307V27.848h5.539z" fill="#2084AD"/><path d="M95.384 14.464V52.31h-5.23V14.465h5.23z" fill="#004F70" stroke="#004F70" stroke-width=".308"/><path opacity=".9" fill-rule="evenodd" clip-rule="evenodd" d="M101.077 26.617v25.846h-5.538V26.617h5.538z" fill="#2084AD"/><path d="M24 30.771v21.538h-5.23V30.771H24z" fill="#004F70" stroke="#004F70" stroke-width=".308"/><path opacity=".9" fill-rule="evenodd" clip-rule="evenodd" d="M29.692 39.848v12.615h-5.538V39.848h5.538z" fill="#2084AD"/><path d="M41.846 33.847V52.31h-5.23V33.847h5.23z" fill="#004F70" stroke="#004F70" stroke-width=".308"/><path opacity=".9" fill-rule="evenodd" clip-rule="evenodd" d="M47.538 24.463v28H42v-28h5.538z" fill="#2084AD"/><path d="M59.692 20.617v31.692h-5.23V20.617h5.23z" fill="#004F70" stroke="#004F70" stroke-width=".308"/><path opacity=".9" fill-rule="evenodd" clip-rule="evenodd" d="M65.385 26.617v25.846h-5.539V26.617h5.539z" fill="#2084AD"/><path d="M77.538.31v52h-5.23v-52h5.23z" fill="#004F70" stroke="#004F70" stroke-width=".308"/><path opacity=".9" fill-rule="evenodd" clip-rule="evenodd" d="M83.23 40.156v12.308h-5.538V40.156h5.539z" fill="#2084AD"/></g><defs><clipPath id="clip0"><path fill="#fff" transform="translate(.77 .154)" d="M0 0h100.308v52.308H0z"/></clipPath></defs></svg>