<svg width="100" height="55" fill="none" xmlns="http://www.w3.org/2000/svg"><g clip-path="url(#clip0)" fill-rule="evenodd" clip-rule="evenodd"><g clip-path="url(#clip1)"><path d="M99.77 17.307V55.46H89.307V17.307h10.461z" fill="#004F70"/><path d="M99.77 17.307v8.615H89.307v-8.615h10.461z" fill="#64B316"/><path d="M99.77 25.922v16.615H89.307V25.922h10.461z" fill="#2084AD"/></g><g clip-path="url(#clip2)"><path d="M81.923 6.229v49.23H71.46V6.23h10.462z" fill="#004F70"/><path d="M81.923 6.229V25.92H71.46V6.229h10.462z" fill="#64B316"/><path d="M81.923 25.922v7.384H71.46v-7.384h10.462z" fill="#2084AD"/></g><g clip-path="url(#clip3)"><path d="M64.077 20.385v35.077H53.616V20.385h10.461z" fill="#004F70"/><path d="M64.077 20.385v12.923H53.616V20.385h10.461z" fill="#64B316"/><path d="M64.077 33.309v13.538H53.616V33.31h10.461z" fill="#2084AD"/></g><g clip-path="url(#clip4)"><path d="M46.23 12.072v43.385H35.77V12.072H46.23z" fill="#004F70"/><path d="M46.23 12.072v27.385H35.77V12.072H46.23z" fill="#64B316"/><path d="M46.23 39.457v10.462H35.77V39.457H46.23z" fill="#2084AD"/></g><g clip-path="url(#clip5)"><path d="M28.385 21.307V55.46H17.923V21.307h10.462z" fill="#004F70"/><path d="M28.385 21.307v12H17.923v-12h10.462z" fill="#64B316"/><path d="M28.385 33.307v13.538H17.923V33.307h10.462z" fill="#2084AD"/></g><g clip-path="url(#clip6)"><path d="M10.538.072v55.385H.077V.072h10.461z" fill="#004F70"/><path d="M10.538.072v27.693H.077V.072h10.461z" fill="#64B316"/><path d="M10.538 20.072V43.15H.077V20.072h10.461z" fill="#2084AD"/></g></g><defs><clipPath id="clip0"><path fill="#fff" transform="translate(.077 .076)" d="M0 0h99.692v55.385H0z"/></clipPath><clipPath id="clip1"><path fill="#fff" transform="translate(89.308 17.307)" d="M0 0h10.461v38.154H0z"/></clipPath><clipPath id="clip2"><path fill="#fff" transform="translate(71.462 6.229)" d="M0 0h10.461v49.231H0z"/></clipPath><clipPath id="clip3"><path fill="#fff" transform="translate(53.615 20.383)" d="M0 0h10.461v35.077H0z"/></clipPath><clipPath id="clip4"><path fill="#fff" transform="translate(35.77 12.074)" d="M0 0h10.461v43.385H0z"/></clipPath><clipPath id="clip5"><path fill="#fff" transform="translate(17.923 21.307)" d="M0 0h10.461v34.154H0z"/></clipPath><clipPath id="clip6"><path fill="#fff" transform="translate(.077 .074)" d="M0 0h10.461v55.385H0z"/></clipPath></defs></svg>