<svg width="112" height="62" fill="none" xmlns="http://www.w3.org/2000/svg"><g clip-path="url(#clip0)"><g clip-path="url(#clip1)" stroke-width=".185" stroke-linecap="square"><path d="M.042 2.245h111.804" stroke="url(#paint0_radial)"/><path d="M.042 14.245h111.804" stroke="url(#paint1_radial)"/><path d="M.042 26.245h111.804" stroke="url(#paint2_radial)"/><path d="M.042 38.245h111.804" stroke="url(#paint3_radial)"/><path d="M.042 50.245h111.804" stroke="url(#paint4_radial)"/></g><path fill-rule="evenodd" clip-rule="evenodd" d="M97.582 19.5c-5.499-5.219-8.643-11.507-12.497-8.852-3.854 2.655-10.997 9.049-18.003 11.353-7.994 1.947-19 6.5-19 6.5s-1.5.5-3.5 0c-5.171-2.123-16-8-19.5-6.5-7 2-16.962 4.471-22.786 4.507-5.824.035-3.572 8.676-9.408 5.97-5.836-2.707-11.147-4.332-14.3 5.62-3.153 9.95-.376 26.903-.376 26.903h141.87V32.477s-17.001-7.758-22.5-12.977z" fill="#E8F1F6" stroke="#004F70"/><path fill-rule="evenodd" clip-rule="evenodd" d="M6 28a2 2 0 100-4 2 2 0 000 4zM26 24a2 2 0 100-4 2 2 0 000 4zM46 30a2 2 0 100-4 2 2 0 000 4zM66 24a2 2 0 100-4 2 2 0 000 4zM86 12a2 2 0 100-4 2 2 0 000 4zM106 28a2 2 0 100-4 2 2 0 000 4z" fill="#fff" stroke="#004F70"/></g><defs><radialGradient id="paint0_radial" cx="0" cy="0" r="1" gradientUnits="userSpaceOnUse" gradientTransform="matrix(0 27.6166 -16724.8 0 55.945 2.152)"><stop stop-color="#F5F7F8"/><stop offset="1" stop-color="#E7EBEF"/></radialGradient><radialGradient id="paint1_radial" cx="0" cy="0" r="1" gradientUnits="userSpaceOnUse" gradientTransform="matrix(0 27.6166 -16724.8 0 55.945 14.152)"><stop stop-color="#F5F7F8"/><stop offset="1" stop-color="#E7EBEF"/></radialGradient><radialGradient id="paint2_radial" cx="0" cy="0" r="1" gradientUnits="userSpaceOnUse" gradientTransform="matrix(0 27.6166 -16724.8 0 55.945 26.152)"><stop stop-color="#F5F7F8"/><stop offset="1" stop-color="#E7EBEF"/></radialGradient><radialGradient id="paint3_radial" cx="0" cy="0" r="1" gradientUnits="userSpaceOnUse" gradientTransform="matrix(0 27.6166 -16724.8 0 55.945 38.152)"><stop stop-color="#F5F7F8"/><stop offset="1" stop-color="#E7EBEF"/></radialGradient><radialGradient id="paint4_radial" cx="0" cy="0" r="1" gradientUnits="userSpaceOnUse" gradientTransform="matrix(0 27.6166 -16724.8 0 55.945 50.152)"><stop stop-color="#F5F7F8"/><stop offset="1" stop-color="#E7EBEF"/></radialGradient><clipPath id="clip0"><path fill="#fff" d="M0 0h112v62H0z"/></clipPath><clipPath id="clip1"><path fill="#fff" transform="translate(0 2.152)" d="M0 0h112v60.308H0z"/></clipPath></defs></svg>