<svg width="60" height="60" fill="none" xmlns="http://www.w3.org/2000/svg"><g clip-path="url(#clip0)" fill-rule="evenodd" clip-rule="evenodd"><path d="M51.295 51.007c11.623-11.623 11.623-30.618 0-42.24C39.486-3.044 20.257-2.809 8.868 8.58c16.838 16.936 21.213 21.213 21.213 21.213s-1.19 1.18-21.213 21.399c11.836 11.835 30.618 11.623 42.427-.186z" fill="#2084AD"/><path d="M8.869 51.193c11.623 11.623 30.618 11.623 42.24 0 11.81-11.808 11.575-31.037.186-42.426C34.36 25.605 30.082 29.98 30.082 29.98s-1.18-1.19-21.399-21.213C-3.152 20.603-2.94 39.385 8.87 51.193z" fill="#64B316"/><path d="M30.12 59.887c16.438 0 29.87-13.432 29.87-29.87 0-16.699-13.763-30.13-29.87-30.13-.07 23.881 0 30 0 30s-1.675-.008-30.13.13c0 16.74 13.43 29.87 30.13 29.87z" fill="#004F70"/></g><defs><clipPath id="clip0"><path fill="#fff" d="M0 0h60v60H0z"/></clipPath></defs></svg>